<svg xmlns="http://www.w3.org/2000/svg" xmlns:xlink="http://www.w3.org/1999/xlink" width="500" zoomAndPan="magnify" viewBox="0 0 375 374.999991" height="500" preserveAspectRatio="xMidYMid meet" version="1.0"><defs><clipPath id="43060c647d"><path d="M 46.964844 7.613281 L 328.035156 7.613281 L 328.035156 365 L 46.964844 365 Z M 46.964844 7.613281 " clip-rule="nonzero"/></clipPath><clipPath id="3f3c16e1f9"><path d="M 328.035156 22.613281 L 328.035156 301.792969 C 328.035156 310.792969 322.390625 318.824219 313.921875 321.875 L 201.613281 362.304688 C 192.492188 365.589844 182.507812 365.589844 173.386719 362.304688 L 61.078125 321.875 C 52.609375 318.824219 46.964844 310.792969 46.964844 301.792969 L 46.964844 22.613281 C 46.964844 18.636719 48.546875 14.820312 51.359375 12.007812 C 54.171875 9.195312 57.988281 7.613281 61.964844 7.613281 L 313.035156 7.613281 C 317.011719 7.613281 320.828125 9.195312 323.640625 12.007812 C 326.453125 14.820312 328.035156 18.636719 328.035156 22.613281 Z M 328.035156 22.613281 " clip-rule="nonzero"/></clipPath><clipPath id="b80b846054"><path d="M 103 127 L 297 127 L 297 374.148438 L 103 374.148438 Z M 103 127 " clip-rule="nonzero"/></clipPath><clipPath id="041413f0e6"><path d="M 70.78125 71 L 269 71 L 269 273 L 70.78125 273 Z M 70.78125 71 " clip-rule="nonzero"/></clipPath><clipPath id="f32c327e9f"><path d="M 229 0 L 304.625 0 L 304.625 86 L 229 86 Z M 229 0 " clip-rule="nonzero"/></clipPath></defs><g clip-path="url(#43060c647d)"><g clip-path="url(#3f3c16e1f9)"><path fill="#0b4a84" d="M 46.964844 7.613281 L 328.035156 7.613281 L 328.035156 367.738281 L 46.964844 367.738281 Z M 46.964844 7.613281 " fill-opacity="1" fill-rule="nonzero"/></g></g><g clip-path="url(#b80b846054)"><path fill="#ffffff" d="M 253.019531 206.207031 C 250.519531 211.742188 247.839844 216.980469 244.972656 221.933594 C 242.167969 236.113281 234.863281 251.214844 221.652344 266.386719 C 191.910156 300.542969 137.992188 301.71875 103.386719 287.203125 C 133.304688 335.433594 183.804688 374.953125 183.804688 374.953125 C 183.804688 374.953125 296.785156 286.542969 296.785156 196.152344 C 296.785156 170.257812 288.078125 146.410156 273.433594 127.367188 C 270 157.382812 263.144531 183.875 253.019531 206.207031 Z M 253.019531 206.207031 " fill-opacity="1" fill-rule="nonzero"/></g><g clip-path="url(#041413f0e6)"><path fill="#ffffff" d="M 157.574219 272.179688 C 175.34375 271.699219 191.960938 265.847656 206.628906 254.964844 C 214.484375 249.148438 221.785156 241.890625 228.410156 233.234375 C 235.035156 224.570312 240.984375 214.507812 246.136719 203.085938 C 256.417969 180.417969 263.558594 152.386719 266.675781 119.371094 C 268.078125 104.351562 268.664062 88.292969 268.320312 71.230469 C 264.878906 84.367188 261.085938 97.449219 256.9375 110.046875 C 249.914062 131.277344 241.808594 151.191406 232.503906 167.875 C 218.101562 193.722656 200.800781 211.824219 180.125 215.148438 C 127.984375 223.507812 124.765625 145.914062 180.46875 142.796875 C 197.507812 141.851562 214.660156 149.152344 227.203125 161.832031 C 235.132812 147.160156 242.714844 128.960938 249.765625 107.671875 C 250.046875 106.804688 250.335938 105.933594 250.621094 105.054688 C 231.902344 91.304688 208.804688 83.1875 183.804688 83.1875 C 121.40625 83.191406 70.832031 133.765625 70.832031 196.152344 C 70.832031 196.964844 70.832031 201.15625 71.070312 203.363281 C 76.285156 250.863281 113.363281 273.425781 157.574219 272.179688 Z M 157.574219 272.179688 " fill-opacity="1" fill-rule="nonzero"/></g><g clip-path="url(#f32c327e9f)"><path fill="#ffffff" d="M 269.375 39.992188 L 278.308594 83.8125 L 304.140625 85.304688 L 271.6875 0 L 229.621094 81 L 255.453125 82.492188 Z M 269.375 39.992188 " fill-opacity="1" fill-rule="nonzero"/></g></svg>